# xmcd CD database file
#
# Track frame offsets:
#	150
#	26082
#	46797
#	65367
#	90310
#	116187
#	135847
#	158902
#	187205
#	212322
#	234020
#
# Disc length: 3397 seconds
#
# Revision: 0
# Processed by: cddbd v1.5.1PL0 Copyright (c) Steve Scherf et al.
# Submitted via: CDex 1.51
#
DISCID=840d430b
DTITLE=Henry Fiol - Lo Maximo
DYEAR=1995
DGENRE=Salsa
TTITLE0=Buscando Una Melodia
TTITLE1=El Juguito
TTITLE2=No Hace Falta Papel
TTITLE3=Perdido En La Ciudad
TTITLE4=Picoteando Por Ahi
TTITLE5=La Negra Sanda
TTITLE6=Aprietala En El Rincón
TTITLE7=Buena Suerte
TTITLE8=La Ultima Rumba
TTITLE9=Juega Billar
TTITLE10=Caramelo A Kilo
EXTD=YEAR: 1995
EXTT0=
EXTT1=
EXTT2=
EXTT3=
EXTT4=
EXTT5=
EXTT6=
EXTT7=
EXTT8=
EXTT9=
EXTT10=
PLAYORDER=
